<svg width="279" height="313" viewBox="0 0 279 313" fill="none" xmlns="http://www.w3.org/2000/svg">
<path d="M101.72 300.78C102.42 301.86 103.387 302.39 104.62 302.37C115.247 302.197 125.873 302.18 136.5 302.32C139.58 302.353 142.23 301.563 144.45 299.95C175.89 277.11 207.84 254.96 239.69 232.69C246.05 228.25 244.89 220.94 244.9 214.24C244.907 191.067 244.913 167.897 244.92 144.73C244.92 136.96 245.33 132.2 239.56 127.95C203.633 101.53 173.127 78.9 148.04 60.06C141.58 55.22 139.25 55.6 132.47 60.38C111.457 75.2 90.5067 90.1167 69.62 105.13C65.54 108.05 65.88 112.58 65.86 118.53C65.7867 138.85 65.7534 159.173 65.76 179.5C65.76 186.98 66.98 189.31 72.53 193.45C84.6233 202.443 96.7167 211.44 108.81 220.44C110.39 221.613 111.87 221.75 113.25 220.85C113.489 220.694 113.686 220.48 113.822 220.229C113.959 219.977 114.03 219.696 114.03 219.41C114.01 199.683 113.94 180.213 113.82 161C113.793 157.287 112.323 154.323 109.41 152.11C105.263 148.957 100.493 145.41 95.1 141.47C94.7986 141.251 94.456 141.094 94.0929 141.011C93.7298 140.927 93.3537 140.918 92.9874 140.983C92.6211 141.048 92.2721 141.187 91.9614 141.391C91.6508 141.595 91.385 141.86 91.18 142.17L90.73 142.85C89.41 144.843 89.71 146.55 91.63 147.97C95.67 150.957 99.5 153.763 103.12 156.39C106.71 159 106.86 160.27 106.87 164.5C106.91 179.5 106.95 194.467 106.99 209.4C106.989 209.465 106.97 209.528 106.936 209.584C106.902 209.639 106.854 209.683 106.797 209.713C106.74 209.742 106.676 209.754 106.613 209.748C106.55 209.742 106.49 209.719 106.44 209.68C97.4333 202.82 88.3167 196.06 79.09 189.4C74.68 186.22 72.91 185.36 72.93 180C73.0233 158.38 73.04 136.753 72.98 115.12C72.97 112.3 73.69 111.13 75.86 109.61C86.84 101.957 106.76 87.84 135.62 67.26C138.6 65.14 140.45 63.36 143.45 65.6C179.057 92.24 209.717 115.073 235.43 134.1C236.97 135.24 237.743 136.79 237.75 138.75C237.757 166.663 237.677 194.58 237.51 222.5C237.497 224.253 236.883 225.563 235.67 226.43C222.597 235.743 201.073 250.897 171.1 271.89C160.773 279.117 150.463 286.37 140.17 293.65C138.79 294.617 137.233 295.11 135.5 295.13C125.847 295.23 116.193 295.227 106.54 295.12" stroke="#8A8D8F" stroke-width="2"/>
<path d="M109.01 263.97C115.057 268.277 119.057 271.217 121.01 272.79C128.57 278.9 132.61 275.18 139.94 270.02C161.38 254.947 182.87 239.94 204.41 225C210.6 220.71 216.7 216.69 216.69 210.5C216.637 191.087 216.713 171.67 216.92 152.25C216.973 147.61 215.18 143.94 211.54 141.24C197.353 130.72 182.543 119.64 167.11 108C165.23 106.58 163.51 106.753 161.95 108.52L161.35 109.19C161.108 109.463 160.925 109.784 160.813 110.131C160.7 110.478 160.66 110.846 160.696 111.209C160.732 111.573 160.842 111.926 161.02 112.246C161.198 112.567 161.439 112.847 161.73 113.07L174.91 123.09C174.983 123.147 175.041 123.221 175.08 123.304C175.119 123.388 175.138 123.48 175.135 123.573C175.132 123.665 175.108 123.756 175.063 123.837C175.019 123.918 174.956 123.988 174.88 124.04C168.5 128.37 162.11 130.6 162.26 139.75C162.447 151.05 162.547 174.3 162.56 209.5C162.56 211.247 162.15 212.443 161.33 213.09C155.523 217.617 145.69 224.51 131.83 233.77C129.79 235.137 129.43 236.857 130.75 238.93L131.23 239.67C131.435 239.992 131.703 240.27 132.018 240.487C132.333 240.704 132.688 240.855 133.063 240.931C133.438 241.008 133.825 241.008 134.201 240.932C134.576 240.856 134.933 240.706 135.25 240.49C145.717 233.343 155.657 226.37 165.07 219.57C168.117 217.37 169.637 214.263 169.63 210.25C169.57 186.517 169.54 162.523 169.54 138.27C169.54 137.797 169.653 137.33 169.87 136.907C170.088 136.485 170.403 136.119 170.79 135.84L180.35 129.01C180.668 128.786 181.049 128.667 181.438 128.671C181.828 128.674 182.206 128.8 182.52 129.03C190.407 134.797 198.173 140.43 205.82 145.93C208.48 147.84 209.5 148.93 209.5 152.46C209.493 171.793 209.5 190.97 209.52 209.99C209.52 210.602 209.378 211.205 209.105 211.752C208.833 212.299 208.437 212.774 207.95 213.14C204.683 215.607 201.333 218.023 197.9 220.39C176.58 235.117 155.367 249.993 134.26 265.02C131.92 266.68 128.97 269.25 125.98 267.31C123.853 265.937 122.267 264.86 121.22 264.08C97 246.187 72.7766 228.293 48.55 210.4C46.33 208.76 45.77 207.68 45.77 205C45.7833 170.08 45.78 135.2 45.76 100.36C45.7568 99.6781 45.9198 99.0051 46.235 98.399C46.5503 97.7928 47.0084 97.2715 47.57 96.88C77.7367 75.7933 107.903 54.5267 138.07 33.08C140.083 31.6467 141.993 31.5967 143.8 32.93C171.487 53.4167 199.177 73.9034 226.87 94.39C228.217 95.3767 229.543 96.3967 230.85 97.45C234.9 100.7 233.75 106.39 240.49 107.07C247.68 107.79 252.01 100.2 248.19 94.55C245.79 91 242.31 91.01 238.48 91.81C237.06 92.11 235.99 91.9933 235.27 91.46C206.383 70.24 177.533 48.9667 148.72 27.64C144.03 24.17 140.57 22.25 135.55 25.81C104.8 47.62 73.65 68.99 43.2 91.21C39.98 93.5567 38.3867 96.9033 38.42 101.25C38.5333 114.423 38.5467 142.08 38.46 184.22" stroke="#8A8D8F" stroke-width="2"/>
<path d="M18.31 86C18.9567 85.28 19.5067 84.7566 19.96 84.43C42.92 67.8833 66.24 51.3767 89.92 34.91C91.8933 33.5367 92.2 31.8566 90.84 29.87L90.36 29.16C90.146 28.8474 89.8725 28.5801 89.5552 28.3735C89.2379 28.1669 88.8831 28.0251 88.5112 27.9563C88.1394 27.8876 87.7578 27.8931 87.3886 27.9727C87.0194 28.0522 86.6698 28.2043 86.36 28.42C62.04 45.3933 38.2767 62.2066 15.07 78.86C12.1633 80.9466 10.71 83.3267 10.71 86C10.7233 119.987 10.7033 153.973 10.65 187.96" stroke="#8A8D8F" stroke-width="2"/>
<path d="M120.758 12.2462C120.057 10.2549 118.575 8.63011 116.639 7.72913C114.704 6.82815 112.472 6.72482 110.436 7.4419C109.428 7.79697 108.498 8.34277 107.699 9.04813C106.9 9.75349 106.249 10.6046 105.781 11.5529C105.314 12.5011 105.04 13.528 104.975 14.5748C104.91 15.6216 105.055 16.6678 105.402 17.6538C106.103 19.6451 107.585 21.2699 109.521 22.1709C111.456 23.0719 113.688 23.1752 115.724 22.4581C116.732 22.103 117.662 21.5572 118.461 20.8519C119.26 20.1465 119.911 19.2954 120.379 18.3471C120.846 17.3989 121.12 16.372 121.185 15.3252C121.25 14.2784 121.105 13.2322 120.758 12.2462Z" stroke="#8A8D8F" stroke-width="2"/>
<path d="M133.35 102.12C133.963 102.4 134.607 102.687 135.28 102.98C141.81 105.83 148.33 100.33 146.6 93.57C144.37 84.82 132.34 85.85 130.2 94.63C130.149 94.8295 130.028 95.0035 129.86 95.12L104.73 112.76C104.084 113.215 103.639 113.903 103.49 114.678C103.341 115.454 103.498 116.258 103.93 116.92L104.47 117.76C104.726 118.154 105.059 118.492 105.45 118.754C105.841 119.015 106.281 119.195 106.743 119.282C107.206 119.369 107.681 119.361 108.142 119.259C108.602 119.158 109.036 118.964 109.42 118.69L132.48 102.21C132.753 102.01 133.043 101.98 133.35 102.12Z" stroke="#8A8D8F" stroke-width="2"/>
<path d="M193.6 297.5C218.467 280.187 243.217 262.71 267.85 245.07C271.363 242.55 273.12 238.86 273.12 234C273.087 195.567 273.093 156.803 273.14 117.71C273.147 115.363 271.977 114.173 269.63 114.14L268.78 114.13C268.413 114.125 268.048 114.193 267.708 114.33C267.367 114.467 267.057 114.671 266.796 114.93C266.534 115.189 266.326 115.497 266.185 115.837C266.043 116.177 265.97 116.542 265.97 116.91C266.05 156.557 266.133 195.587 266.22 234C266.227 236.2 265.763 237.64 264.83 238.32C240.93 255.93 216.28 272.62 192.1 289.85C191.2 290.497 189.95 291.53 188.35 292.95C188.234 293.054 188.096 293.13 187.945 293.175C187.795 293.22 187.636 293.232 187.48 293.21C186.8 293.11 186.137 292.983 185.49 292.83C177.45 290.91 172.2 300.94 178.23 306.69C181.88 310.18 189.08 308.84 191.02 303.76C192.09 300.97 190.47 299.68 193.6 297.5Z" stroke="#8A8D8F" stroke-width="2"/>
<path d="M135.69 120.67C131.33 122.89 129.06 129.26 133.18 132.95C134.69 134.3 135.16 134.97 135.16 137.2C135.153 149.553 135.137 162.523 135.11 176.11C135.11 176.878 135.409 177.615 135.943 178.164C136.478 178.714 137.205 179.032 137.97 179.05L138.83 179.07C141.323 179.13 142.573 177.913 142.58 175.42L142.67 136.06C142.673 135.747 142.749 135.439 142.891 135.161C143.033 134.883 143.239 134.643 143.49 134.46C152.03 128.18 144.26 116.3 135.69 120.67Z" stroke="#8A8D8F" stroke-width="2"/>
<path d="M147.13 200.02C147.13 197.888 146.283 195.843 144.775 194.335C143.267 192.827 141.222 191.98 139.09 191.98C136.958 191.98 134.913 192.827 133.405 194.335C131.897 195.843 131.05 197.888 131.05 200.02C131.05 202.152 131.897 204.197 133.405 205.705C134.913 207.213 136.958 208.06 139.09 208.06C141.222 208.06 143.267 207.213 144.775 205.705C146.283 204.197 147.13 202.152 147.13 200.02Z" stroke="#8A8D8F" stroke-width="2"/>
<path d="M10.65 187.96L10.74 238.33C10.7402 238.515 10.6948 238.697 10.6076 238.861C10.5204 239.025 10.3942 239.165 10.24 239.27C7.31333 241.283 6.17335 243.913 6.82001 247.16C8.37001 255.04 18.55 255.84 22.11 249.08C23.55 246.34 23.3067 243.62 21.38 240.92C20.61 239.83 19.28 239.06 18.18 238.2C17.8867 237.973 17.74 237.673 17.74 237.3L17.76 87.53C17.76 87.2233 17.83 86.9333 17.97 86.66L18.31 86" stroke="#88898B" stroke-width="2"/>
<path d="M38.46 184.22C38.48 191.553 38.5467 198.897 38.66 206.25C38.72 210.17 40.36 213.307 43.58 215.66C58 226.2 79.81 242.303 109.01 263.97" stroke="#88898B" stroke-width="2"/>
<path d="M106.54 295.12C102.87 295.17 99.99 296.51 101.72 300.78" stroke="#88898B" stroke-width="2"/>
<path d="M115.724 22.4581C119.964 20.9648 122.218 16.3928 120.758 12.2462C119.298 8.09964 114.676 5.9487 110.436 7.44196C106.196 8.93522 103.942 13.5072 105.402 17.6538C106.862 21.8004 111.484 23.9513 115.724 22.4581Z" fill="#FBF5E6"/>
<path d="M109.01 263.97C79.81 242.303 58 226.2 43.58 215.66C40.36 213.307 38.72 210.17 38.66 206.25C38.5467 198.897 38.48 191.553 38.46 184.22C38.5467 142.08 38.5333 114.423 38.42 101.25C38.3867 96.9033 39.98 93.5567 43.2 91.21C73.65 68.99 104.8 47.62 135.55 25.81C140.57 22.25 144.03 24.17 148.72 27.64C177.533 48.9667 206.383 70.24 235.27 91.46C235.99 91.9933 237.06 92.11 238.48 91.81C242.31 91.01 245.79 91 248.19 94.55C252.01 100.2 247.68 107.79 240.49 107.07C233.75 106.39 234.9 100.7 230.85 97.45C229.543 96.3967 228.217 95.3767 226.87 94.39C199.177 73.9034 171.487 53.4167 143.8 32.93C141.993 31.5967 140.083 31.6467 138.07 33.08C107.903 54.5267 77.7367 75.7933 47.57 96.88C47.0084 97.2715 46.5503 97.7928 46.235 98.399C45.9198 99.0051 45.7568 99.6781 45.76 100.36C45.78 135.2 45.7833 170.08 45.77 205C45.77 207.68 46.33 208.76 48.55 210.4C72.7766 228.293 97 246.187 121.22 264.08C122.267 264.86 123.853 265.937 125.98 267.31C128.97 269.25 131.92 266.68 134.26 265.02C155.367 249.993 176.58 235.117 197.9 220.39C201.333 218.023 204.683 215.607 207.95 213.14C208.437 212.774 208.833 212.299 209.105 211.752C209.378 211.205 209.52 210.602 209.52 209.99C209.5 190.97 209.493 171.793 209.5 152.46C209.5 148.93 208.48 147.84 205.82 145.93C198.173 140.43 190.407 134.797 182.52 129.03C182.206 128.8 181.828 128.674 181.438 128.671C181.049 128.667 180.668 128.786 180.35 129.01L170.79 135.84C170.403 136.119 170.088 136.485 169.87 136.907C169.653 137.33 169.54 137.797 169.54 138.27C169.54 162.523 169.57 186.517 169.63 210.25C169.637 214.263 168.117 217.37 165.07 219.57C155.657 226.37 145.717 233.343 135.25 240.49C134.933 240.706 134.576 240.856 134.201 240.932C133.825 241.008 133.438 241.008 133.063 240.931C132.688 240.855 132.333 240.704 132.018 240.487C131.703 240.27 131.435 239.992 131.23 239.67L130.75 238.93C129.43 236.857 129.79 235.137 131.83 233.77C145.69 224.51 155.523 217.617 161.33 213.09C162.15 212.443 162.56 211.247 162.56 209.5C162.547 174.3 162.447 151.05 162.26 139.75C162.11 130.6 168.5 128.37 174.88 124.04C174.956 123.988 175.019 123.918 175.063 123.837C175.108 123.756 175.132 123.665 175.135 123.573C175.138 123.48 175.119 123.388 175.08 123.304C175.041 123.221 174.983 123.147 174.91 123.09L161.73 113.07C161.439 112.847 161.198 112.567 161.02 112.246C160.842 111.926 160.732 111.573 160.696 111.209C160.66 110.846 160.7 110.478 160.813 110.131C160.925 109.784 161.108 109.463 161.35 109.19L161.95 108.52C163.51 106.753 165.23 106.58 167.11 108C182.543 119.64 197.353 130.72 211.54 141.24C215.18 143.94 216.973 147.61 216.92 152.25C216.713 171.67 216.637 191.087 216.69 210.5C216.7 216.69 210.6 220.71 204.41 225C182.87 239.94 161.38 254.947 139.94 270.02C132.61 275.18 128.57 278.9 121.01 272.79C119.057 271.217 115.057 268.277 109.01 263.97Z" fill="#FBF5E6"/>
<path d="M18.31 86L17.97 86.66C17.83 86.9333 17.76 87.2233 17.76 87.53L17.74 237.3C17.74 237.673 17.8867 237.973 18.18 238.2C19.28 239.06 20.61 239.83 21.38 240.92C23.3067 243.62 23.55 246.34 22.11 249.08C18.55 255.84 8.37001 255.04 6.82001 247.16C6.17335 243.913 7.31333 241.283 10.24 239.27C10.3942 239.165 10.5204 239.025 10.6076 238.861C10.6948 238.697 10.7402 238.515 10.74 238.33L10.65 187.96C10.7033 153.973 10.7233 119.987 10.71 86C10.71 83.3267 12.1633 80.9466 15.07 78.86C38.2767 62.2066 62.04 45.3933 86.36 28.42C86.6698 28.2043 87.0194 28.0522 87.3886 27.9727C87.7578 27.8931 88.1394 27.8876 88.5112 27.9563C88.8831 28.0251 89.2379 28.1669 89.5552 28.3735C89.8725 28.5801 90.146 28.8474 90.36 29.16L90.84 29.87C92.2 31.8566 91.8934 33.5367 89.92 34.91C66.24 51.3767 42.92 67.8833 19.96 84.43C19.5067 84.7566 18.9567 85.28 18.31 86Z" fill="#FBF5E6"/>
<path d="M101.72 300.78C99.99 296.51 102.87 295.17 106.54 295.12C116.193 295.227 125.847 295.23 135.5 295.13C137.233 295.11 138.79 294.617 140.17 293.65C150.463 286.37 160.773 279.117 171.1 271.89C201.073 250.897 222.597 235.743 235.67 226.43C236.883 225.563 237.497 224.253 237.51 222.5C237.677 194.58 237.757 166.663 237.75 138.75C237.743 136.79 236.97 135.24 235.43 134.1C209.717 115.073 179.057 92.24 143.45 65.6C140.45 63.36 138.6 65.14 135.62 67.26C106.76 87.84 86.84 101.957 75.86 109.61C73.69 111.13 72.97 112.3 72.98 115.12C73.04 136.753 73.0233 158.38 72.93 180C72.91 185.36 74.68 186.22 79.09 189.4C88.3167 196.06 97.4333 202.82 106.44 209.68C106.49 209.719 106.55 209.742 106.613 209.748C106.676 209.754 106.74 209.742 106.797 209.713C106.854 209.683 106.902 209.639 106.936 209.584C106.97 209.528 106.989 209.465 106.99 209.4C106.95 194.467 106.91 179.5 106.87 164.5C106.86 160.27 106.71 159 103.12 156.39C99.5 153.763 95.67 150.957 91.63 147.97C89.71 146.55 89.41 144.843 90.73 142.85L91.18 142.17C91.385 141.86 91.6508 141.595 91.9614 141.391C92.2721 141.187 92.6211 141.048 92.9874 140.983C93.3537 140.918 93.7298 140.927 94.0929 141.011C94.456 141.094 94.7986 141.251 95.1 141.47C100.493 145.41 105.263 148.957 109.41 152.11C112.323 154.323 113.793 157.287 113.82 161C113.94 180.213 114.01 199.683 114.03 219.41C114.03 219.696 113.959 219.977 113.822 220.229C113.686 220.48 113.489 220.694 113.25 220.85C111.87 221.75 110.39 221.613 108.81 220.44C96.7167 211.44 84.6233 202.443 72.53 193.45C66.98 189.31 65.76 186.98 65.76 179.5C65.7534 159.173 65.7867 138.85 65.86 118.53C65.88 112.58 65.54 108.05 69.62 105.13C90.5067 90.1167 111.457 75.2 132.47 60.38C139.25 55.6 141.58 55.22 148.04 60.06C173.127 78.9 203.633 101.53 239.56 127.95C245.33 132.2 244.92 136.96 244.92 144.73C244.913 167.897 244.907 191.067 244.9 214.24C244.89 220.94 246.05 228.25 239.69 232.69C207.84 254.96 175.89 277.11 144.45 299.95C142.23 301.563 139.58 302.353 136.5 302.32C125.873 302.18 115.247 302.197 104.62 302.37C103.387 302.39 102.42 301.86 101.72 300.78Z" fill="#FBF5E6"/>
<path d="M133.35 102.12C133.043 101.98 132.753 102.01 132.48 102.21L109.42 118.69C109.036 118.964 108.602 119.158 108.142 119.259C107.681 119.361 107.206 119.369 106.743 119.282C106.281 119.195 105.841 119.015 105.45 118.754C105.059 118.492 104.726 118.154 104.47 117.76L103.93 116.92C103.498 116.258 103.341 115.454 103.49 114.678C103.639 113.903 104.084 113.215 104.73 112.76L129.86 95.12C130.028 95.0035 130.149 94.8295 130.2 94.63C132.34 85.85 144.37 84.82 146.6 93.57C148.33 100.33 141.81 105.83 135.28 102.98C134.607 102.687 133.963 102.4 133.35 102.12Z" fill="#FBF5E6"/>
<path d="M193.6 297.5C190.47 299.68 192.09 300.97 191.02 303.76C189.08 308.84 181.88 310.18 178.23 306.69C172.2 300.94 177.45 290.91 185.49 292.83C186.137 292.983 186.8 293.11 187.48 293.21C187.636 293.232 187.795 293.22 187.945 293.175C188.096 293.13 188.234 293.054 188.35 292.95C189.95 291.53 191.2 290.497 192.1 289.85C216.28 272.62 240.93 255.93 264.83 238.32C265.763 237.64 266.227 236.2 266.22 234C266.133 195.587 266.05 156.557 265.97 116.91C265.97 116.542 266.043 116.177 266.185 115.837C266.326 115.497 266.534 115.189 266.796 114.93C267.057 114.671 267.367 114.467 267.708 114.33C268.048 114.193 268.413 114.125 268.78 114.13L269.63 114.14C271.977 114.173 273.147 115.363 273.14 117.71C273.093 156.803 273.087 195.567 273.12 234C273.12 238.86 271.363 242.55 267.85 245.07C243.217 262.71 218.467 280.187 193.6 297.5Z" fill="#FBF5E6"/>
<path d="M135.69 120.67C144.26 116.3 152.03 128.18 143.49 134.46C143.239 134.643 143.033 134.883 142.891 135.161C142.749 135.439 142.673 135.747 142.67 136.06L142.58 175.42C142.573 177.913 141.323 179.13 138.83 179.07L137.97 179.05C137.205 179.032 136.478 178.714 135.943 178.165C135.409 177.615 135.11 176.878 135.11 176.11C135.137 162.523 135.153 149.553 135.16 137.2C135.16 134.97 134.69 134.3 133.18 132.95C129.06 129.26 131.33 122.89 135.69 120.67Z" fill="#FBF5E6"/>
<path d="M139.09 208.06C143.53 208.06 147.13 204.46 147.13 200.02C147.13 195.58 143.53 191.98 139.09 191.98C134.65 191.98 131.05 195.58 131.05 200.02C131.05 204.46 134.65 208.06 139.09 208.06Z" fill="#FBF5E6"/>
</svg>
